<?xml version="1.0" standalone="no"?>
<!DOCTYPE svg PUBLIC "-//W3C//DTD SVG 20010904//EN"
 "http://www.w3.org/TR/2001/REC-SVG-20010904/DTD/svg10.dtd">
<svg version="1.0" xmlns="http://www.w3.org/2000/svg"
 width="328.000000pt" height="198.000000pt" viewBox="0 0 328.000000 198.000000"
 preserveAspectRatio="xMidYMid meet">
<metadata>
Created by potrace 1.16, written by Peter Selinger 2001-2019
</metadata>
<g transform="translate(0.000000,198.000000) scale(0.100000,-0.100000)"
fill="#000000" stroke="none">
<path d="M0 990 l0 -990 1640 0 1640 0 0 990 0 990 -1640 0 -1640 0 0 -990z
m532 865 c31 -8 69 -22 85 -32 44 -28 93 -66 93 -73 0 -3 -20 -22 -44 -43
l-44 -37 -52 35 c-45 30 -60 35 -110 35 -49 0 -65 -5 -106 -32 -133 -89 -122
-272 20 -343 71 -36 119 -33 190 10 l58 35 27 -19 c14 -10 34 -28 44 -39 17
-19 17 -20 -20 -52 -20 -18 -62 -44 -92 -57 -48 -22 -67 -25 -136 -21 -123 7
-212 63 -270 170 -23 42 -30 69 -33 134 -4 72 -1 88 23 143 38 84 114 154 198
180 76 24 97 25 169 6z m2628 -860 l0 -875 -780 0 -780 0 0 875 0 875 780 0
780 0 0 -875z m-2160 650 c58 -112 107 -205 110 -205 3 0 51 92 108 205 l102
205 65 0 c36 0 65 -3 65 -6 0 -3 -68 -143 -151 -310 l-150 -304 -38 0 -37 0
-158 310 -158 310 69 0 69 0 104 -205z m103 -725 c2 -164 2 -165 25 -168 40
-6 23 -36 -21 -40 -32 -3 -39 0 -44 17 -7 28 -43 28 -43 1 0 -18 -7 -20 -60
-20 -53 0 -60 2 -60 19 0 12 -8 21 -21 23 -19 3 -21 9 -21 83 0 74 2 80 21 83
13 2 21 11 21 23 0 17 7 19 60 19 l60 0 0 39 c0 30 -4 40 -20 44 -12 3 -20 14
-20 27 0 19 4 21 61 18 l61 -3 1 -165z m-713 25 c0 -9 11 -20 25 -25 14 -5 25
-17 25 -25 0 -13 -9 -15 -42 -13 -30 2 -43 8 -43 18 0 10 -13 16 -42 18 l-43
3 0 -86 0 -86 43 3 c34 2 41 6 39 21 -2 14 5 17 43 17 39 0 46 -3 43 -17 -2
-10 -13 -19 -26 -21 -14 -2 -22 -10 -22 -23 0 -17 -8 -19 -80 -19 -72 0 -80 2
-80 19 0 13 -8 21 -22 23 -22 3 -23 8 -23 83 0 75 1 80 23 83 14 2 22 10 22
23 0 17 8 19 80 19 65 0 80 -3 80 -15z m340 -5 c0 -13 7 -20 20 -20 18 0 20
-7 20 -81 0 -72 -2 -81 -20 -86 -11 -3 -20 -14 -20 -24 0 -17 -8 -19 -81 -19
-71 0 -81 2 -86 19 -3 11 -13 21 -24 24 -17 5 -19 15 -19 86 0 74 2 81 20 81
13 0 20 7 20 20 0 18 7 20 85 20 78 0 85 -2 85 -20z m670 0 c0 -13 7 -20 20
-20 17 0 20 -7 20 -40 l0 -39 -82 -3 -83 -3 0 -40 c0 -39 1 -40 38 -43 32 -3
39 0 44 17 4 17 13 21 44 21 32 0 39 -3 39 -20 0 -13 -7 -20 -19 -20 -10 0
-21 -9 -24 -20 -5 -18 -14 -20 -86 -20 -73 0 -81 2 -81 19 0 10 -9 21 -20 24
-18 5 -20 14 -20 86 0 73 2 81 19 81 10 0 21 9 24 20 5 18 14 20 86 20 74 0
81 -2 81 -20z m-42 -372 c29 -14 58 -40 77 -66 27 -39 30 -52 30 -116 0 -84
-22 -127 -90 -174 -35 -24 -50 -27 -117 -27 -69 0 -81 3 -119 30 -121 85 -123
263 -3 341 73 48 142 52 222 12z m-918 0 c74 -39 100 -119 60 -185 -33 -54
-63 -67 -169 -73 l-96 -5 -3 -57 -3 -58 -39 0 -40 0 0 200 0 200 123 0 c108 0
128 -3 167 -22z m463 -1 c65 -42 85 -130 46 -193 -11 -19 -24 -34 -27 -34 -4
0 -15 -7 -25 -15 -18 -13 -15 -17 45 -74 l63 -60 -60 -1 -61 0 -68 69 c-57 57
-67 73 -64 97 3 27 6 29 53 32 76 5 107 48 71 98 -12 16 -29 20 -100 23 l-86
3 0 -161 0 -161 -40 0 -40 0 0 201 0 201 133 -4 c107 -2 138 -6 160 -21z"/>
<path d="M1940 1197 l0 -62 138 -69 137 -69 -137 -66 -138 -65 0 -63 c0 -35 2
-63 5 -63 3 0 95 45 205 100 l200 100 0 58 0 57 -205 103 -205 102 0 -63z"/>
<path d="M2380 585 l0 -55 235 0 235 0 0 55 0 55 -235 0 -235 0 0 -55z"/>
<path d="M1205 501 c-51 -23 -75 -59 -75 -112 0 -83 62 -136 149 -126 91 10
140 109 94 188 -17 28 -84 69 -114 69 -8 0 -32 -9 -54 -19z"/>
<path d="M237 503 c-4 -3 -7 -30 -7 -60 l0 -53 89 0 c82 0 91 2 105 22 23 32
20 54 -10 77 -21 17 -41 21 -99 21 -39 0 -75 -3 -78 -7z"/>
</g>
</svg>
