<?xml version="1.0" standalone="no"?>
<!DOCTYPE svg PUBLIC "-//W3C//DTD SVG 20010904//EN"
 "http://www.w3.org/TR/2001/REC-SVG-20010904/DTD/svg10.dtd">
<svg version="1.0" xmlns="http://www.w3.org/2000/svg"
 width="275.000000pt" height="162.000000pt" viewBox="0 0 275.000000 162.000000"
 preserveAspectRatio="xMidYMid meet">
<metadata>
Created by potrace 1.16, written by Peter Selinger 2001-2019
</metadata>
<g transform="translate(0.000000,162.000000) scale(0.100000,-0.100000)"
fill="#000000" stroke="none">
<path d="M0 810 l0 -810 1344 0 c739 0 1352 3 1361 6 45 18 45 19 45 804 0
785 0 786 -45 804 -9 3 -622 6 -1361 6 l-1344 0 0 -810z m2595 675 l25 -24 0
-656 0 -656 -25 -24 -24 -25 -591 0 -591 0 -24 25 -25 24 0 656 0 656 25 24
24 25 591 0 591 0 24 -25z m-2109 0 c27 -8 66 -29 87 -46 l38 -32 -31 -32 -32
-33 -49 30 c-41 26 -55 30 -95 25 -85 -9 -139 -69 -139 -152 0 -138 158 -203
266 -109 13 12 20 9 48 -20 l32 -33 -33 -28 c-49 -41 -96 -58 -163 -58 -138
-1 -246 108 -246 249 0 110 58 191 168 234 59 23 85 24 149 5z m352 -155 c46
-88 87 -160 90 -160 4 0 43 71 87 158 l80 157 48 0 c26 0 46 -4 46 -10 -1 -5
-53 -112 -115 -237 -114 -227 -114 -228 -147 -228 -32 0 -33 2 -149 229 -65
125 -118 233 -118 240 0 7 19 11 48 11 l47 0 83 -160z m-525 -473 c18 -8 38
-21 45 -30 11 -13 10 -17 -6 -26 -15 -8 -28 -7 -51 5 -27 13 -37 14 -62 4 -35
-15 -49 -37 -49 -79 0 -58 68 -98 115 -67 22 15 28 15 46 3 20 -15 20 -15 -6
-36 -40 -30 -86 -36 -130 -15 -100 47 -100 189 0 235 48 22 57 23 98 6z m287
-15 c67 -49 75 -139 16 -198 -42 -42 -91 -52 -141 -28 -100 47 -101 189 -2
235 47 22 88 19 127 -9z m279 4 c39 -21 64 -64 64 -111 0 -86 -49 -125 -160
-125 l-73 0 0 125 0 125 70 0 c42 0 82 -6 99 -14z m321 -111 c0 -24 -2 -25
-75 -25 -73 0 -75 -1 -75 -25 0 -24 2 -24 88 -27 82 -3 87 -4 90 -25 3 -23 2
-23 -112 -23 l-116 0 0 75 0 75 100 0 100 0 0 -25z m-32 -260 c74 -31 112 -86
112 -160 0 -66 -25 -112 -79 -146 -80 -51 -171 -34 -234 43 -73 90 -28 225 88
266 43 15 71 14 113 -3z m-744 -9 c45 -19 66 -52 66 -104 0 -37 -6 -50 -34
-78 -33 -33 -36 -34 -115 -34 l-81 0 0 -50 0 -50 -35 0 -35 0 0 165 0 165 100
0 c63 0 113 -5 134 -14z m412 -28 c50 -55 42 -130 -18 -172 l-22 -16 49 -50
49 -50 -49 0 c-46 0 -53 3 -102 52 -39 38 -53 60 -53 80 0 26 3 28 39 28 44 0
71 20 71 54 0 37 -19 46 -97 46 l-73 0 0 -130 0 -130 -30 0 -30 0 0 166 0 166
116 -4 116 -3 34 -37z"/>
<path d="M2015 1458 c-31 -16 -45 -39 -45 -71 0 -40 15 -63 50 -75 57 -20 110
14 110 72 0 38 -10 55 -41 71 -33 18 -47 18 -74 3z"/>
<path d="M2234 1460 c-28 -11 -54 -48 -54 -77 0 -39 42 -77 85 -77 43 0 85 39
85 79 0 51 -68 95 -116 75z"/>
<path d="M2432 1445 c-61 -51 -27 -139 53 -139 101 0 108 140 9 160 -24 4 -37
0 -62 -21z"/>
<path d="M1592 898 l3 -53 103 -52 c57 -28 106 -54 109 -57 3 -2 -45 -30 -106
-60 l-111 -56 0 -50 c0 -31 4 -50 11 -50 7 0 85 39 175 86 l164 85 0 44 0 44
-169 85 c-94 47 -173 86 -176 86 -3 0 -5 -24 -3 -52z"/>
<path d="M1960 390 l0 -50 195 0 195 0 0 50 0 50 -195 0 -195 0 0 -50z"/>
<path d="M495 809 c-41 -23 -56 -68 -39 -114 10 -24 60 -46 89 -39 31 8 65 49
65 80 0 51 -72 97 -115 73z"/>
<path d="M760 735 l0 -75 44 0 c60 0 90 25 90 75 0 50 -30 75 -90 75 l-44 0 0
-75z"/>
<path d="M1064 410 c-36 -14 -64 -59 -64 -102 0 -88 108 -132 179 -72 93 78
-1 220 -115 174z"/>
<path d="M260 360 l0 -51 72 3 c67 3 73 5 87 30 14 24 14 28 -3 47 -16 17 -31
21 -88 21 l-68 0 0 -50z"/>
</g>
</svg>
